FILE "2024-02-27_19h49m50s.wav" WAVE
  TRACK 01 AUDIO
    TITLE "Joja — For All The Lost Ones"
    PERFORMER ""
    INDEX 01 00:01:60
  TRACK 02 AUDIO
    TITLE "BCee feat. Lucy Kitchen — Surfacing (delete me)"
    PERFORMER ""
    INDEX 01 02:35:56
  TRACK 03 AUDIO
    TITLE "Edlan — Notice [DELETEME]"
    PERFORMER ""
    INDEX 01 03:35:56

